<svg xmlns="http://www.w3.org/2000/svg" viewBox="0 0 64 48" shape-rendering="crispEdges">
<rect width="64" height="48" fill="#713119"/>
<g fill="#b9471e">
<rect x="1" y="1" width="19" height="9"/><rect x="22" y="1" width="20" height="9"/><rect x="44" y="1" width="19" height="9"/>
<rect x="-9" y="12" width="20" height="9"/><rect x="13" y="12" width="20" height="9"/><rect x="35" y="12" width="20" height="9"/><rect x="57" y="12" width="16" height="9"/>
<rect x="1" y="23" width="19" height="9"/><rect x="22" y="23" width="20" height="9"/><rect x="44" y="23" width="19" height="9"/>
<rect x="-9" y="34" width="20" height="9"/><rect x="13" y="34" width="20" height="9"/><rect x="35" y="34" width="20" height="9"/><rect x="57" y="34" width="16" height="9"/>
</g>
<g fill="#d25a26">
<rect x="3" y="2" width="15" height="2"/><rect x="24" y="2" width="16" height="2"/><rect x="46" y="2" width="15" height="2"/>
<rect x="15" y="13" width="16" height="2"/><rect x="37" y="13" width="16" height="2"/>
<rect x="3" y="24" width="15" height="2"/><rect x="24" y="24" width="16" height="2"/><rect x="46" y="24" width="15" height="2"/>
<rect x="15" y="35" width="16" height="2"/><rect x="37" y="35" width="16" height="2"/>
</g>
<g fill="#8d3519">
<rect x="3" y="8" width="15" height="1"/><rect x="24" y="8" width="16" height="1"/><rect x="46" y="8" width="15" height="1"/>
<rect x="15" y="19" width="16" height="1"/><rect x="37" y="19" width="16" height="1"/>
<rect x="3" y="30" width="15" height="1"/><rect x="24" y="30" width="16" height="1"/><rect x="46" y="30" width="15" height="1"/>
<rect x="15" y="41" width="16" height="1"/><rect x="37" y="41" width="16" height="1"/>
</g>
</svg>