<svg xmlns="http://www.w3.org/2000/svg" viewBox="0 0 240 420" shape-rendering="crispEdges"><path d="M0 0h240v420H0z" fill="#20385f"/><path d="M0 62h240v358H0z" fill="#2b4b74"/><path d="M0 122h240v298H0z" fill="#4b6689"/><path d="M0 178h240v242H0z" fill="#8b657c"/><path d="M0 212h240v208H0z" fill="#d47b67"/><path d="M0 246h240v174H0z" fill="#6f657c"/><path d="M8 41h38v5H8zm5-4h26v5H13zm7-3h14v4H20z" fill="#d98983" opacity=".55"/><path d="M72 81h28v5H72zm5-4h16v5H77zm7-3h6v4H84z" fill="#d98983" opacity=".55"/><path d="M154 49h46v5H154zm5-4h34v5H159zm7-3h22v4H166z" fill="#d98983" opacity=".55"/><path d="M198 101h32v5H198zm5-4h20v5H203zm7-3h8v4H210z" fill="#d98983" opacity=".55"/><path d="M0 257l14-12 10 4 13-18 11 9 13-6 12 9 13-15 11 9 16-17 12 9 11-5 10 10 15-16 13 7 14-17 12 15 11-10 12 8 13-11 9 6v69H0z" fill="#374f71"/><path d="M0 269h26v18H0z" fill="#2a405e"/><path d="M4 274h2v3h-2z" fill="#f0b96b" opacity=".7"/><path d="M18 274h2v3h-2z" fill="#f0b96b" opacity=".7"/><path d="M11 281h2v3h-2z" fill="#f0b96b" opacity=".7"/><path d="M18 281h2v3h-2z" fill="#f0b96b" opacity=".7"/><path d="M15 260h20v27H15z" fill="#314866"/><path d="M26 265h2v3h-2z" fill="#f0b96b" opacity=".7"/><path d="M19 272h2v3h-2z" fill="#f0b96b" opacity=".7"/><path d="M26 272h2v3h-2z" fill="#f0b96b" opacity=".7"/><path d="M19 279h2v3h-2z" fill="#f0b96b" opacity=".7"/><path d="M30 271h34v16H30z" fill="#2a405e"/><path d="M41 276h2v3h-2z" fill="#f0b96b" opacity=".7"/><path d="M48 276h2v3h-2z" fill="#f0b96b" opacity=".7"/><path d="M34 283h2v3h-2z" fill="#f0b96b" opacity=".7"/><path d="M41 283h2v3h-2z" fill="#f0b96b" opacity=".7"/><path d="M55 283h2v3h-2z" fill="#f0b96b" opacity=".7"/><path d="M49 256h22v31H49z" fill="#314866"/><path d="M53 261h2v3h-2z" fill="#f0b96b" opacity=".7"/><path d="M67 261h2v3h-2z" fill="#f0b96b" opacity=".7"/><path d="M60 268h2v3h-2z" fill="#f0b96b" opacity=".7"/><path d="M67 268h2v3h-2z" fill="#f0b96b" opacity=".7"/><path d="M53 275h2v3h-2z" fill="#f0b96b" opacity=".7"/><path d="M60 275h2v3h-2z" fill="#f0b96b" opacity=".7"/><path d="M53 282h2v3h-2z" fill="#f0b96b" opacity=".7"/><path d="M67 282h2v3h-2z" fill="#f0b96b" opacity=".7"/><path d="M63 266h28v21H63z" fill="#2a405e"/><path d="M74 271h2v3h-2z" fill="#f0b96b" opacity=".7"/><path d="M81 271h2v3h-2z" fill="#f0b96b" opacity=".7"/><path d="M67 278h2v3h-2z" fill="#f0b96b" opacity=".7"/><path d="M74 278h2v3h-2z" fill="#f0b96b" opacity=".7"/><path d="M88 278h2v3h-2z" fill="#f0b96b" opacity=".7"/><path d="M80 250h18v37H80z" fill="#314866"/><path d="M84 255h2v3h-2z" fill="#f0b96b" opacity=".7"/><path d="M91 262h2v3h-2z" fill="#f0b96b" opacity=".7"/><path d="M84 269h2v3h-2z" fill="#f0b96b" opacity=".7"/><path d="M91 269h2v3h-2z" fill="#f0b96b" opacity=".7"/><path d="M84 276h2v3h-2z" fill="#f0b96b" opacity=".7"/><path d="M91 283h2v3h-2z" fill="#f0b96b" opacity=".7"/><path d="M92 269h30v18H92z" fill="#2a405e"/><path d="M96 274h2v3h-2z" fill="#f0b96b" opacity=".7"/><path d="M103 274h2v3h-2z" fill="#f0b96b" opacity=".7"/><path d="M117 274h2v3h-2z" fill="#f0b96b" opacity=".7"/><path d="M96 281h2v3h-2z" fill="#f0b96b" opacity=".7"/><path d="M110 281h2v3h-2z" fill="#f0b96b" opacity=".7"/><path d="M117 281h2v3h-2z" fill="#f0b96b" opacity=".7"/><path d="M109 259h25v28H109z" fill="#314866"/><path d="M120 264h2v3h-2z" fill="#f0b96b" opacity=".7"/><path d="M127 264h2v3h-2z" fill="#f0b96b" opacity=".7"/><path d="M113 271h2v3h-2z" fill="#f0b96b" opacity=".7"/><path d="M120 271h2v3h-2z" fill="#f0b96b" opacity=".7"/><path d="M113 278h2v3h-2z" fill="#f0b96b" opacity=".7"/><path d="M127 278h2v3h-2z" fill="#f0b96b" opacity=".7"/><path d="M125 245h19v42H125z" fill="#2a405e"/><path d="M136 250h2v3h-2z" fill="#f0b96b" opacity=".7"/><path d="M129 257h2v3h-2z" fill="#f0b96b" opacity=".7"/><path d="M136 257h2v3h-2z" fill="#f0b96b" opacity=".7"/><path d="M129 264h2v3h-2z" fill="#f0b96b" opacity=".7"/><path d="M136 271h2v3h-2z" fill="#f0b96b" opacity=".7"/><path d="M129 278h2v3h-2z" fill="#f0b96b" opacity=".7"/><path d="M136 278h2v3h-2z" fill="#f0b96b" opacity=".7"/><path d="M137 261h27v26H137z" fill="#314866"/><path d="M141 266h2v3h-2z" fill="#f0b96b" opacity=".7"/><path d="M155 266h2v3h-2z" fill="#f0b96b" opacity=".7"/><path d="M148 273h2v3h-2z" fill="#f0b96b" opacity=".7"/><path d="M155 273h2v3h-2z" fill="#f0b96b" opacity=".7"/><path d="M141 280h2v3h-2z" fill="#f0b96b" opacity=".7"/><path d="M148 280h2v3h-2z" fill="#f0b96b" opacity=".7"/><path d="M154 251h17v36H154z" fill="#2a405e"/><path d="M158 256h2v3h-2z" fill="#f0b96b" opacity=".7"/><path d="M165 256h2v3h-2z" fill="#f0b96b" opacity=".7"/><path d="M158 263h2v3h-2z" fill="#f0b96b" opacity=".7"/><path d="M165 270h2v3h-2z" fill="#f0b96b" opacity=".7"/><path d="M158 277h2v3h-2z" fill="#f0b96b" opacity=".7"/><path d="M165 277h2v3h-2z" fill="#f0b96b" opacity=".7"/><path d="M158 284h2v3h-2z" fill="#f0b96b" opacity=".7"/><path d="M165 268h32v19H165z" fill="#314866"/><path d="M176 273h2v3h-2z" fill="#f0b96b" opacity=".7"/><path d="M183 273h2v3h-2z" fill="#f0b96b" opacity=".7"/><path d="M169 280h2v3h-2z" fill="#f0b96b" opacity=".7"/><path d="M176 280h2v3h-2z" fill="#f0b96b" opacity=".7"/><path d="M190 280h2v3h-2z" fill="#f0b96b" opacity=".7"/><path d="M184 257h25v30H184z" fill="#2a405e"/><path d="M195 262h2v3h-2z" fill="#f0b96b" opacity=".7"/><path d="M202 262h2v3h-2z" fill="#f0b96b" opacity=".7"/><path d="M188 269h2v3h-2z" fill="#f0b96b" opacity=".7"/><path d="M195 269h2v3h-2z" fill="#f0b96b" opacity=".7"/><path d="M188 276h2v3h-2z" fill="#f0b96b" opacity=".7"/><path d="M202 276h2v3h-2z" fill="#f0b96b" opacity=".7"/><path d="M195 283h2v3h-2z" fill="#f0b96b" opacity=".7"/><path d="M202 283h2v3h-2z" fill="#f0b96b" opacity=".7"/><path d="M199 247h18v40H199z" fill="#314866"/><path d="M210 252h2v3h-2z" fill="#f0b96b" opacity=".7"/><path d="M203 259h2v3h-2z" fill="#f0b96b" opacity=".7"/><path d="M210 259h2v3h-2z" fill="#f0b96b" opacity=".7"/><path d="M203 266h2v3h-2z" fill="#f0b96b" opacity=".7"/><path d="M210 273h2v3h-2z" fill="#f0b96b" opacity=".7"/><path d="M203 280h2v3h-2z" fill="#f0b96b" opacity=".7"/><path d="M210 280h2v3h-2z" fill="#f0b96b" opacity=".7"/><path d="M211 264h29v23H211z" fill="#2a405e"/><path d="M222 269h2v3h-2z" fill="#f0b96b" opacity=".7"/><path d="M229 269h2v3h-2z" fill="#f0b96b" opacity=".7"/><path d="M215 276h2v3h-2z" fill="#f0b96b" opacity=".7"/><path d="M222 276h2v3h-2z" fill="#f0b96b" opacity=".7"/><path d="M236 276h2v3h-2z" fill="#f0b96b" opacity=".7"/><path d="M215 283h2v3h-2z" fill="#f0b96b" opacity=".7"/><path d="M229 283h2v3h-2z" fill="#f0b96b" opacity=".7"/><path d="M236 283h2v3h-2z" fill="#f0b96b" opacity=".7"/><path d="M229 253h14v34H229z" fill="#314866"/><path d="M233 258h2v3h-2z" fill="#f0b96b" opacity=".7"/><path d="M240 265h2v3h-2z" fill="#f0b96b" opacity=".7"/><path d="M233 272h2v3h-2z" fill="#f0b96b" opacity=".7"/><path d="M240 272h2v3h-2z" fill="#f0b96b" opacity=".7"/><path d="M233 279h2v3h-2z" fill="#f0b96b" opacity=".7"/><path d="M14 284h58v22H14z" fill="#1e3655"/><path d="M24 284v-13h38v13z" fill="#233b59"/><path d="M30 271c4-10 22-10 26 0z" fill="#1d3350"/><path d="M42 257h2v14h-2zM41 254h4v4h-4z" fill="#192e49"/><path d="M19 249h3v35h-3zM64 247h3v37h-3z" fill="#1a304d"/><path d="M18 245h5v5h-5zM63 243h5v5h-5z" fill="#1a304d"/><path d="M20 240h1v5h-1zM65 238h1v5h-1z" fill="#f0b96b"/><path d="M74 271h15v34H74z" fill="#1c3555"/><path d="M84 277h2v3h-2z" fill="#ffd06f" opacity=".9"/><path d="M84 285h2v3h-2z" fill="#ffd06f" opacity=".9"/><path d="M84 293h2v3h-2z" fill="#ffd06f" opacity=".9"/><path d="M84 301h2v3h-2z" fill="#ffd06f" opacity=".9"/><path d="M88 258h22v47H88z" fill="#223c5d"/><path d="M92 264h2v3h-2z" fill="#ffd06f" opacity=".9"/><path d="M104 264h2v3h-2z" fill="#ffd06f" opacity=".9"/><path d="M92 272h2v3h-2z" fill="#ffd06f" opacity=".9"/><path d="M104 272h2v3h-2z" fill="#ffd06f" opacity=".9"/><path d="M92 280h2v3h-2z" fill="#ffd06f" opacity=".9"/><path d="M104 280h2v3h-2z" fill="#ffd06f" opacity=".9"/><path d="M92 288h2v3h-2z" fill="#ffd06f" opacity=".9"/><path d="M104 288h2v3h-2z" fill="#ffd06f" opacity=".9"/><path d="M92 296h2v3h-2z" fill="#ffd06f" opacity=".9"/><path d="M104 296h2v3h-2z" fill="#ffd06f" opacity=".9"/><path d="M107 279h14v26H107z" fill="#1c3555"/><path d="M117 285h2v3h-2z" fill="#ffd06f" opacity=".9"/><path d="M117 293h2v3h-2z" fill="#ffd06f" opacity=".9"/><path d="M117 301h2v3h-2z" fill="#ffd06f" opacity=".9"/><path d="M120 251h18v54H120z" fill="#223c5d"/><path d="M124 257h2v3h-2z" fill="#ffd06f" opacity=".9"/><path d="M124 265h2v3h-2z" fill="#ffd06f" opacity=".9"/><path d="M124 273h2v3h-2z" fill="#ffd06f" opacity=".9"/><path d="M124 281h2v3h-2z" fill="#ffd06f" opacity=".9"/><path d="M124 289h2v3h-2z" fill="#ffd06f" opacity=".9"/><path d="M124 297h2v3h-2z" fill="#ffd06f" opacity=".9"/><path d="M136 273h17v32H136z" fill="#1c3555"/><path d="M146 279h2v3h-2z" fill="#ffd06f" opacity=".9"/><path d="M146 287h2v3h-2z" fill="#ffd06f" opacity=".9"/><path d="M146 295h2v3h-2z" fill="#ffd06f" opacity=".9"/><path d="M149 261h24v44H149z" fill="#223c5d"/><path d="M157 253h8v8h-8zM160 246h2v7h-2z" fill="#18304f"/><path d="M153 267h2v3h-2z" fill="#ffd06f" opacity=".9"/><path d="M165 267h2v3h-2z" fill="#ffd06f" opacity=".9"/><path d="M153 275h2v3h-2z" fill="#ffd06f" opacity=".9"/><path d="M165 275h2v3h-2z" fill="#ffd06f" opacity=".9"/><path d="M153 283h2v3h-2z" fill="#ffd06f" opacity=".9"/><path d="M165 283h2v3h-2z" fill="#ffd06f" opacity=".9"/><path d="M153 291h2v3h-2z" fill="#ffd06f" opacity=".9"/><path d="M165 291h2v3h-2z" fill="#ffd06f" opacity=".9"/><path d="M153 299h2v3h-2z" fill="#ffd06f" opacity=".9"/><path d="M165 299h2v3h-2z" fill="#ffd06f" opacity=".9"/><path d="M170 243h12v62H170z" fill="#1c3555"/><path d="M174 249h2v3h-2z" fill="#ffd06f" opacity=".9"/><path d="M174 257h2v3h-2z" fill="#ffd06f" opacity=".9"/><path d="M174 265h2v3h-2z" fill="#ffd06f" opacity=".9"/><path d="M174 273h2v3h-2z" fill="#ffd06f" opacity=".9"/><path d="M174 281h2v3h-2z" fill="#ffd06f" opacity=".9"/><path d="M174 289h2v3h-2z" fill="#ffd06f" opacity=".9"/><path d="M174 297h2v3h-2z" fill="#ffd06f" opacity=".9"/><path d="M182 268h21v37H182z" fill="#223c5d"/><path d="M192 274h2v3h-2z" fill="#ffd06f" opacity=".9"/><path d="M192 282h2v3h-2z" fill="#ffd06f" opacity=".9"/><path d="M192 290h2v3h-2z" fill="#ffd06f" opacity=".9"/><path d="M192 298h2v3h-2z" fill="#ffd06f" opacity=".9"/><path d="M201 255h15v50H201z" fill="#1c3555"/><path d="M211 261h2v3h-2z" fill="#ffd06f" opacity=".9"/><path d="M211 269h2v3h-2z" fill="#ffd06f" opacity=".9"/><path d="M211 277h2v3h-2z" fill="#ffd06f" opacity=".9"/><path d="M211 285h2v3h-2z" fill="#ffd06f" opacity=".9"/><path d="M211 293h2v3h-2z" fill="#ffd06f" opacity=".9"/><path d="M211 301h2v3h-2z" fill="#ffd06f" opacity=".9"/><path d="M215 274h25v31H215z" fill="#223c5d"/><path d="M219 280h2v3h-2z" fill="#ffd06f" opacity=".9"/><path d="M231 280h2v3h-2z" fill="#ffd06f" opacity=".9"/><path d="M219 288h2v3h-2z" fill="#ffd06f" opacity=".9"/><path d="M231 288h2v3h-2z" fill="#ffd06f" opacity=".9"/><path d="M219 296h2v3h-2z" fill="#ffd06f" opacity=".9"/><path d="M231 296h2v3h-2z" fill="#ffd06f" opacity=".9"/><path d="M126 304h114v4H126z" fill="#172f4c"/><path d="M147 265h5v43h-5zM216 263h5v45h-5z" fill="#17304e"/><path d="M144 263h11v4h-11zM213 261h11v4h-11z" fill="#203b58"/><path d="M149 266L128 302M151 266l28 36M218 264l-28 38M220 264l20 34" stroke="#f0a36a" stroke-width="1.4" fill="none"/><path d="M129 301h2v2h-2z" fill="#ffd36b"/><path d="M136 301h2v2h-2z" fill="#ffd36b"/><path d="M143 301h2v2h-2z" fill="#ffd36b"/><path d="M150 301h2v2h-2z" fill="#ffd36b"/><path d="M157 301h2v2h-2z" fill="#ffd36b"/><path d="M164 301h2v2h-2z" fill="#ffd36b"/><path d="M171 301h2v2h-2z" fill="#ffd36b"/><path d="M178 301h2v2h-2z" fill="#ffd36b"/><path d="M185 301h2v2h-2z" fill="#ffd36b"/><path d="M192 301h2v2h-2z" fill="#ffd36b"/><path d="M199 301h2v2h-2z" fill="#ffd36b"/><path d="M206 301h2v2h-2z" fill="#ffd36b"/><path d="M213 301h2v2h-2z" fill="#ffd36b"/><path d="M220 301h2v2h-2z" fill="#ffd36b"/><path d="M227 301h2v2h-2z" fill="#ffd36b"/><path d="M234 301h2v2h-2z" fill="#ffd36b"/><path d="M0 308h240v112H0z" fill="#183c64"/><path d="M0 322h240v98H0z" fill="#164c75"/><path d="M0 344h240v76H0z" fill="#123d66"/><path d="M3 328h8v2h-8zM5 344h6v2h-6zM2 352h9v2h-9z" fill="#f5a25d" opacity=".85"/><path d="M14 324h5v2h-5zM16 349h4v2h-4zM13 368h5v2h-5z" fill="#4f88a8" opacity=".6"/><path d="M25 320h5v2h-5zM27 329h4v2h-4zM24 360h5v2h-5z" fill="#4f88a8" opacity=".6"/><path d="M36 316h8v2h-8zM38 334h6v2h-6zM35 352h9v2h-9z" fill="#f5a25d" opacity=".85"/><path d="M47 328h5v2h-5zM49 339h4v2h-4zM46 368h5v2h-5z" fill="#4f88a8" opacity=".6"/><path d="M58 324h5v2h-5zM60 344h4v2h-4zM57 360h5v2h-5z" fill="#4f88a8" opacity=".6"/><path d="M69 320h8v2h-8zM71 349h6v2h-6zM68 352h9v2h-9z" fill="#f5a25d" opacity=".85"/><path d="M80 316h5v2h-5zM82 329h4v2h-4zM79 368h5v2h-5z" fill="#4f88a8" opacity=".6"/><path d="M91 328h5v2h-5zM93 334h4v2h-4zM90 360h5v2h-5z" fill="#4f88a8" opacity=".6"/><path d="M102 324h8v2h-8zM104 339h6v2h-6zM101 352h9v2h-9z" fill="#f5a25d" opacity=".85"/><path d="M113 320h5v2h-5zM115 344h4v2h-4zM112 368h5v2h-5z" fill="#4f88a8" opacity=".6"/><path d="M124 316h5v2h-5zM126 349h4v2h-4zM123 360h5v2h-5z" fill="#4f88a8" opacity=".6"/><path d="M135 328h8v2h-8zM137 329h6v2h-6zM134 352h9v2h-9z" fill="#f5a25d" opacity=".85"/><path d="M146 324h5v2h-5zM148 334h4v2h-4zM145 368h5v2h-5z" fill="#4f88a8" opacity=".6"/><path d="M157 320h5v2h-5zM159 339h4v2h-4zM156 360h5v2h-5z" fill="#4f88a8" opacity=".6"/><path d="M168 316h8v2h-8zM170 344h6v2h-6zM167 352h9v2h-9z" fill="#f5a25d" opacity=".85"/><path d="M179 328h5v2h-5zM181 349h4v2h-4zM178 368h5v2h-5z" fill="#4f88a8" opacity=".6"/><path d="M190 324h5v2h-5zM192 329h4v2h-4zM189 360h5v2h-5z" fill="#4f88a8" opacity=".6"/><path d="M201 320h8v2h-8zM203 334h6v2h-6zM200 352h9v2h-9z" fill="#f5a25d" opacity=".85"/><path d="M212 316h5v2h-5zM214 339h4v2h-4zM211 368h5v2h-5z" fill="#4f88a8" opacity=".6"/><path d="M223 328h5v2h-5zM225 344h4v2h-4zM222 360h5v2h-5z" fill="#4f88a8" opacity=".6"/><path d="M234 324h8v2h-8zM236 349h6v2h-6zM233 352h9v2h-9z" fill="#f5a25d" opacity=".85"/><path d="M32 337h33v5H32zM37 333h23v4H37zM42 330h13v3H42z" fill="#d8d5bd"/><path d="M35 341h28v3H35z" fill="#203a56"/><path d="M40 334h3v2h-3z" fill="#ffd06b"/><path d="M46 334h3v2h-3z" fill="#ffd06b"/><path d="M52 334h3v2h-3z" fill="#ffd06b"/><path d="M58 334h3v2h-3z" fill="#ffd06b"/><path d="M174 359h29v4h-29zM179 355h19v4h-19z" fill="#d8d5bd"/><path d="M177 362h24v3h-24z" fill="#203a56"/><path d="M181 356h2v2h-2z" fill="#ffd06b"/><path d="M186 356h2v2h-2z" fill="#ffd06b"/><path d="M191 356h2v2h-2z" fill="#ffd06b"/><path d="M196 356h2v2h-2z" fill="#ffd06b"/><path d="M0 387h34v33H0zM28 378h29v42H28zM51 391h33v29H51zM172 390h28v30h-28zM195 376h45v44h-45z" fill="#102944"/><path d="M6 375h3v12H6zM5 372h5v3H5zM225 360h3v16h-3zM223 357h7v3h-7z" fill="#0d233c"/><g id="v658-city-polish">
<path d="M2 263h12v45H2zM17 252h15v56H17zM36 268h13v40H36zM53 244h14v64H53zM176 255h13v53h-13zM193 246h16v62h-16zM213 264h13v44h-13zM229 241h11v67h-11z" fill="#142b48"/>
<path d="M4 267h8v2H4zM19 256h11v2H19zM38 272h9v2H38zM55 248h10v2H55zM178 259h9v2H178zM195 250h12v2H195zM215 268h9v2H215zM231 245h9v2H231z" fill="#25425e"/>
<path d="M6 274h2v3H6zM10 282h2v3h-2zM6 292h2v3H6zM21 264h2v3h-2zM27 264h2v3h-2zM21 274h2v3h-2zM27 284h2v3h-2zM40 278h2v3h-2zM45 288h2v3h-2zM57 256h2v3h-2zM63 266h2v3h-2zM57 278h2v3h-2zM63 290h2v3h-2zM180 266h2v3h-2zM185 278h2v3h-2zM197 258h2v3h-2zM204 268h2v3h-2zM197 280h2v3h-2zM204 292h2v3h-2zM217 276h2v3h-2zM222 288h2v3h-2zM233 252h2v3h-2zM237 264h2v3h-2zM233 278h2v3h-2zM237 292h2v3h-2z" fill="#ffd36b"/>
<path d="M22 244h6v8h-6zM21 242h8v3h-8zM23 238h4v4h-4zM198 238h7v8h-7zM197 236h9v3h-9zM199 232h5v4h-5z" fill="#1b3554"/>
<path d="M60 225h2v19h-2zM57 231h8v2h-8zM59 221h4v4h-4zM234 220h2v21h-2zM231 227h8v2h-8zM233 216h4v4h-4z" fill="#10243d"/>
<path d="M61 217h1v4h-1zM235 212h1v4h-1z" fill="#ff8a68"/>
<path d="M74 272h28v5H74zM78 268h20v4H78z" fill="#1b3150"/>
<path d="M80 269h3v2h-3zM86 269h3v2h-3zM92 269h3v2h-3z" fill="#78d5d1"/>
<path d="M108 276h14v32h-14zM110 272h10v4h-10zM114 260h2v12h-2zM112 258h6v3h-6z" fill="#18304e"/>
<path d="M112 282h2v3h-2zM118 290h2v3h-2zM112 298h2v3h-2z" fill="#ffd36b"/>
<path d="M150 279h19v29h-19zM153 274h13v5h-13zM157 268h5v6h-5z" fill="#1a3150"/>
<path d="M153 284h2v3h-2zM160 284h2v3h-2zM166 294h2v3h-2zM153 302h2v3h-2z" fill="#ffd36b"/>
</g></svg>